<mxfile host="65bd71144e">
    <diagram id="nJBivRAqX06e4tphOd3R" name="ページ1">
        <mxGraphModel dx="535" dy="442" grid="1" gridSize="10" guides="1" tooltips="1" connect="1" arrows="1" fold="1" page="1" pageScale="1" pageWidth="827" pageHeight="1169" math="0" shadow="0">
            <root>
                <mxCell id="0"/>
                <mxCell id="1" parent="0"/>
                <mxCell id="2" value="nHentai" style="html=1;" vertex="1" parent="1">
                    <mxGeometry x="230" y="50" width="110" height="50" as="geometry"/>
                </mxCell>
            </root>
        </mxGraphModel>
    </diagram>
</mxfile>